<svg xmlns="http://www.w3.org/2000/svg" viewBox="0 0 78 216" width="78" height="216">
<line x1="39" y1="6" x2="39" y2="62" stroke="#374151" stroke-width="1.4"/>
<rect x="35.5" y="1" width="7" height="7" rx="1.5" fill="#f8fafc" stroke="#374151" stroke-width="1"/>
<line x1="12" y1="62" x2="39" y2="8" stroke="#374151" stroke-width="1.2"/>
<line x1="66" y1="62" x2="39" y2="8" stroke="#374151" stroke-width="1.2"/>
<line x1="12" y1="62" x2="12" y2="205" stroke="#374151" stroke-width="1.4"/>
<line x1="66" y1="62" x2="66" y2="205" stroke="#374151" stroke-width="1.4"/>
<line x1="12" y1="75" x2="66" y2="75" stroke="#374151" stroke-width="0.8"/>
<line x1="12" y1="125" x2="66" y2="125" stroke="#374151" stroke-width="0.8"/>
<line x1="12" y1="175" x2="66" y2="175" stroke="#374151" stroke-width="0.8"/>
<line x1="12" y1="205" x2="66" y2="205" stroke="#374151" stroke-width="1.2"/>
<line x1="24" y1="70" x2="24" y2="200" stroke="#374151" stroke-width="0.8" stroke-dasharray="4,3"/>
<line x1="54" y1="70" x2="54" y2="200" stroke="#374151" stroke-width="0.8" stroke-dasharray="4,3"/>
<circle cx="39" cy="30" r="3.2" fill="#ffffff" stroke="#374151" stroke-width="0.9"/>
<rect x="2" y="130" width="8" height="32" rx="3" fill="#f8fafc" stroke="#374151" stroke-width="1"/>
<rect x="68" y="130" width="8" height="32" rx="3" fill="#f8fafc" stroke="#374151" stroke-width="1"/>
<rect x="7.5" y="206.5" width="6.5" height="5" rx="1" fill="#ffffff" stroke="#374151" stroke-width="0.8"/>
<rect x="64" y="206.5" width="6.5" height="5" rx="1" fill="#ffffff" stroke="#374151" stroke-width="0.8"/>
</svg>
