<svg xmlns="http://www.w3.org/2000/svg" viewBox="0 0 54 120" width="54" height="120">
<rect x="2.5" y="1" width="49" height="8.5" rx="1.5" fill="#f8fafc" stroke="#374151" stroke-width="1.3"/>
<line x1="2.5" y1="5.5" x2="51.5" y2="5.5" stroke="#374151" stroke-width="0.5"/>
<rect x="9" y="9" width="4.5" height="32" rx="1" fill="#f8fafc" stroke="#374151" stroke-width="1"/>
<rect x="40.5" y="9" width="4.5" height="32" rx="1" fill="#f8fafc" stroke="#374151" stroke-width="1"/>
<rect x="13" y="38" width="28" height="30" rx="3" fill="#f8fafc" stroke="#374151" stroke-width="1.3"/>
<line x1="13" y1="48" x2="41" y2="48" stroke="#374151" stroke-width="0.5"/>
<line x1="13" y1="56" x2="41" y2="56" stroke="#374151" stroke-width="0.5"/>
<rect x="11" y="70" width="32" height="32" rx="2.5" fill="#f8fafc" stroke="#374151" stroke-width="1.2"/>
<rect x="19" y="76" width="16" height="15" rx="3" fill="#ffffff" stroke="#374151" stroke-width="0.9"/>
<line x1="13" y1="84" x2="41" y2="84" stroke="#374151" stroke-width="1.4"/>
<rect x="21" y="114" width="12" height="5" rx="1" fill="#f8fafc" stroke="#374151" stroke-width="1"/>
<rect x="1" y="42" width="7" height="17" rx="2" fill="#f8fafc" stroke="#374151" stroke-width="1"/>
<rect x="46" y="42" width="7" height="17" rx="2" fill="#f8fafc" stroke="#374151" stroke-width="1"/>
<rect x="0.5" y="90" width="9" height="25" rx="2.5" fill="#f8fafc" stroke="#374151" stroke-width="1.1"/>
<rect x="44.5" y="90" width="9" height="25" rx="2.5" fill="#f8fafc" stroke="#374151" stroke-width="1.1"/>
</svg>
