<svg xmlns="http://www.w3.org/2000/svg" viewBox="0 0 60 48" width="60" height="48">
<line x1="1" y1="1" x2="59" y2="1" stroke="#374151" stroke-width="1.1"/>
<line x1="1" y1="1" x2="1" y2="47" stroke="#374151" stroke-width="1.1"/>
<line x1="59" y1="1" x2="59" y2="47" stroke="#374151" stroke-width="1.1"/>
<line x1="1" y1="47" x2="11" y2="47" stroke="#374151" stroke-width="1.1"/>
<line x1="34" y1="47" x2="59" y2="47" stroke="#374151" stroke-width="1.1"/>
<rect x="2.6" y="2.6" width="54.8" height="43.0" rx="0" fill="none" stroke="#374151" stroke-width="0.35"/>
<line x1="34" y1="47" x2="34" y2="24" stroke="#374151" stroke-width="1.3"/>
<path d="M 11 47 A 23 23 0 0 1 34 24" fill="none" stroke="#374151" stroke-width="0.6"/>
<rect x="28" y="13" width="18" height="18" rx="1" fill="none" stroke="#374151" stroke-width="0.7"/>
<line x1="33" y1="13" x2="33" y2="31" stroke="#374151" stroke-width="0.3"/>
<line x1="37" y1="13" x2="37" y2="31" stroke="#374151" stroke-width="0.3"/>
<line x1="41" y1="13" x2="41" y2="31" stroke="#374151" stroke-width="0.3"/>
<line x1="28" y1="17.5" x2="46" y2="17.5" stroke="#374151" stroke-width="0.3"/>
<line x1="28" y1="22" x2="46" y2="22" stroke="#374151" stroke-width="0.3"/>
<line x1="28" y1="26.5" x2="46" y2="26.5" stroke="#374151" stroke-width="0.3"/>
<circle cx="12" cy="7" r="1.7" fill="none" stroke="#374151" stroke-width="0.6"/>
<circle cx="17" cy="7" r="1.1" fill="none" stroke="#374151" stroke-width="0.6"/>
<rect x="28" y="4" width="24" height="2.4" rx="0.3" fill="none" stroke="#374151" stroke-width="0.5"/>
<line x1="40" y1="4" x2="40" y2="6.4" stroke="#374151" stroke-width="0.3"/>
</svg>
