<svg xmlns="http://www.w3.org/2000/svg" viewBox="0 0 46 96" width="46" height="96">
<rect x="2" y="1" width="42" height="12" rx="1.5" fill="#f8fafc" stroke="#374151" stroke-width="1.3"/>
<line x1="12" y1="2" x2="12" y2="12" stroke="#374151" stroke-width="0.5"/>
<line x1="23" y1="2" x2="23" y2="12" stroke="#374151" stroke-width="0.5"/>
<line x1="34" y1="2" x2="34" y2="12" stroke="#374151" stroke-width="0.5"/>
<circle cx="23" cy="7" r="3.2" fill="#ffffff" stroke="#374151" stroke-width="0.8"/>
<rect x="18" y="13" width="10" height="5" rx="1" fill="#f8fafc" stroke="#374151" stroke-width="1"/>
<rect x="9" y="18" width="28" height="26" rx="3" fill="#f8fafc" stroke="#374151" stroke-width="1.3"/>
<line x1="9" y1="28" x2="37" y2="28" stroke="#374151" stroke-width="0.5"/>
<circle cx="23" cy="50" r="4.5" fill="none" stroke="#374151" stroke-width="1"/>
<rect x="14" y="56" width="18" height="18" rx="3" fill="#ffffff" stroke="#374151" stroke-width="0.9"/>
<rect x="11" y="74" width="24" height="12" rx="2" fill="#f8fafc" stroke="#374151" stroke-width="1.1"/>
<rect x="0.5" y="24" width="6" height="14" rx="2" fill="#f8fafc" stroke="#374151" stroke-width="1"/>
<rect x="39.5" y="24" width="6" height="14" rx="2" fill="#f8fafc" stroke="#374151" stroke-width="1"/>
<rect x="0" y="64" width="8" height="22" rx="2.5" fill="#f8fafc" stroke="#374151" stroke-width="1.1"/>
<rect x="38" y="64" width="8" height="22" rx="2.5" fill="#f8fafc" stroke="#374151" stroke-width="1.1"/>
</svg>
