<svg xmlns="http://www.w3.org/2000/svg" viewBox="0 0 60 42" width="60" height="42">
<rect x="0.75" y="0.75" width="58.5" height="40.5" rx="1.5" fill="#f8fafc" stroke="#374151" stroke-width="1.2"/>
<line x1="15" y1="0.75" x2="15" y2="41.25" stroke="#374151" stroke-width="0.3"/>
<line x1="30" y1="0.75" x2="30" y2="41.25" stroke="#374151" stroke-width="0.3"/>
<line x1="45" y1="0.75" x2="45" y2="41.25" stroke="#374151" stroke-width="0.3"/>
<line x1="0.75" y1="14" x2="59.25" y2="14" stroke="#374151" stroke-width="0.3"/>
<line x1="0.75" y1="28" x2="59.25" y2="28" stroke="#374151" stroke-width="0.3"/>
<rect x="2.5" y="2.5" width="11" height="37" rx="1.2" fill="#ffffff" stroke="#374151" stroke-width="0.8"/>
<line x1="13.5" y1="2.5" x2="13.5" y2="39.5" stroke="#374151" stroke-width="0.5"/>
<circle cx="37" cy="21" r="7.5" fill="none" stroke="#374151" stroke-width="0.7"/>
<circle cx="37" cy="21" r="2.2" fill="none" stroke="#374151" stroke-width="0.5"/>
<circle cx="24" cy="6.5" r="1.6" fill="none" stroke="#374151" stroke-width="0.6"/>
<circle cx="30" cy="6.5" r="1.1" fill="none" stroke="#374151" stroke-width="0.6"/>
<rect x="53" y="4" width="3.5" height="34" rx="0.4" fill="none" stroke="#374151" stroke-width="0.6"/>
<line x1="54.75" y1="4" x2="54.75" y2="38" stroke="#374151" stroke-width="0.4"/>
<line x1="31" y1="39.8" x2="58.5" y2="39.8" stroke="#374151" stroke-width="1.6"/>
<line x1="31" y1="39.8" x2="31" y2="33" stroke="#374151" stroke-width="1.2"/>
</svg>
