0
SECTION
2
HEADER
9
$ACADVER
1
AC1009
0
ENDSEC
0
SECTION
2
TABLES
0
TABLE
2
LTYPE
70
2
0
LTYPE
2
CONTINUOUS
70
0
3
Solid line
72
65
73
0
40
0.000000
0
LTYPE
2
DASHED
70
0
3
Dashed __ __ __
72
65
73
2
40
12.000000
49
9.000000
49
-3.000000
0
ENDTAB
0
TABLE
2
LAYER
70
11
0
LAYER
2
FP-WALLS
70
0
62
7
6
CONTINUOUS
0
LAYER
2
FP-RAILS
70
0
62
4
6
CONTINUOUS
0
LAYER
2
FP-DOORS
70
0
62
1
6
CONTINUOUS
0
LAYER
2
FP-WINDOWS
70
0
62
5
6
CONTINUOUS
0
LAYER
2
FP-X-FENCE
70
0
62
8
6
CONTINUOUS
0
LAYER
2
FP-X-HEDGE
70
0
62
3
6
CONTINUOUS
0
LAYER
2
FP-X-RETAINING
70
0
62
8
6
CONTINUOUS
0
LAYER
2
FP-X-CONCEPT
70
0
62
9
6
DASHED
0
LAYER
2
FP-X-OPEN-EDGE
70
0
62
2
6
DASHED
0
LAYER
2
FP-ROOM-LABELS
70
0
62
7
6
CONTINUOUS
0
LAYER
2
FP-NOTES
70
0
62
6
6
CONTINUOUS
0
ENDTAB
0
TABLE
2
STYLE
70
1
0
STYLE
2
STANDARD
70
0
40
0.000000
41
1.000000
50
0.000000
71
0
42
2.500000
3
txt
4

0
ENDTAB
0
ENDSEC
0
SECTION
2
ENTITIES
0
LINE
8
FP-WALLS
10
0.000000
20
3.000000
30
0.000000
11
120.000000
21
3.000000
31
0.000000
0
LINE
8
FP-WALLS
10
0.000000
20
-3.000000
30
0.000000
11
120.000000
21
-3.000000
31
0.000000
0
LINE
8
FP-WALLS
10
120.000000
20
3.000000
30
0.000000
11
240.000000
21
3.000000
31
0.000000
0
LINE
8
FP-WALLS
10
120.000000
20
-3.000000
30
0.000000
11
240.000000
21
-3.000000
31
0.000000
0
LINE
8
FP-WALLS
10
243.000000
20
0.000000
30
0.000000
11
243.000000
21
-72.000000
31
0.000000
0
LINE
8
FP-WALLS
10
237.000000
20
-0.000000
30
0.000000
11
237.000000
21
-72.000000
31
0.000000
0
LINE
8
FP-WALLS
10
243.000000
20
-108.000000
30
0.000000
11
243.000000
21
-180.000000
31
0.000000
0
LINE
8
FP-WALLS
10
237.000000
20
-108.000000
30
0.000000
11
237.000000
21
-180.000000
31
0.000000
0
LINE
8
FP-WINDOWS
10
243.000000
20
-72.000000
30
0.000000
11
243.000000
21
-108.000000
31
0.000000
0
LINE
8
FP-WINDOWS
10
237.000000
20
-72.000000
30
0.000000
11
237.000000
21
-108.000000
31
0.000000
0
LINE
8
FP-WINDOWS
10
240.000000
20
-72.000000
30
0.000000
11
240.000000
21
-108.000000
31
0.000000
0
TEXT
8
FP-NOTES
10
249.000000
20
-90.000000
30
0.000000
40
4.000000
1
W 3650 sill:30 head:80
50
90.000000
0
LINE
8
FP-WALLS
10
240.000000
20
-183.000000
30
0.000000
11
180.000000
21
-183.000000
31
0.000000
0
LINE
8
FP-WALLS
10
240.000000
20
-177.000000
30
0.000000
11
180.000000
21
-177.000000
31
0.000000
0
LINE
8
FP-WALLS
10
150.000000
20
-183.000000
30
0.000000
11
120.000000
21
-183.000000
31
0.000000
0
LINE
8
FP-WALLS
10
150.000000
20
-177.000000
30
0.000000
11
120.000000
21
-177.000000
31
0.000000
0
LINE
8
FP-DOORS
10
180.000000
20
-183.000000
30
0.000000
11
150.000000
21
-183.000000
31
0.000000
0
LINE
8
FP-DOORS
10
180.000000
20
-177.000000
30
0.000000
11
150.000000
21
-177.000000
31
0.000000
0
LINE
8
FP-DOORS
10
180.000000
20
-180.750000
30
0.000000
11
163.500000
21
-180.750000
31
0.000000
0
LINE
8
FP-DOORS
10
166.500000
20
-179.250000
30
0.000000
11
150.000000
21
-179.250000
31
0.000000
0
TEXT
8
FP-NOTES
10
165.000000
20
-189.000000
30
0.000000
40
4.000000
1
D 3080 SLIDER
50
360.000000
0
LINE
8
FP-WALLS
10
120.000000
20
-183.000000
30
0.000000
11
0.000000
21
-183.000000
31
0.000000
0
LINE
8
FP-WALLS
10
120.000000
20
-177.000000
30
0.000000
11
0.000000
21
-177.000000
31
0.000000
0
LINE
8
FP-WALLS
10
-3.000000
20
-180.000000
30
0.000000
11
-3.000000
21
0.000000
31
0.000000
0
LINE
8
FP-WALLS
10
3.000000
20
-180.000000
30
0.000000
11
3.000000
21
0.000000
31
0.000000
0
LINE
8
FP-WALLS
10
122.250000
20
0.000000
30
0.000000
11
122.250000
21
-24.000000
31
0.000000
0
LINE
8
FP-WALLS
10
117.750000
20
-0.000000
30
0.000000
11
117.750000
21
-24.000000
31
0.000000
0
LINE
8
FP-WALLS
10
122.250000
20
-54.000000
30
0.000000
11
122.250000
21
-180.000000
31
0.000000
0
LINE
8
FP-WALLS
10
117.750000
20
-54.000000
30
0.000000
11
117.750000
21
-180.000000
31
0.000000
0
LINE
8
FP-DOORS
10
122.250000
20
-24.000000
30
0.000000
11
122.250000
21
-54.000000
31
0.000000
0
LINE
8
FP-DOORS
10
117.750000
20
-24.000000
30
0.000000
11
117.750000
21
-54.000000
31
0.000000
0
LINE
8
FP-DOORS
10
120.000000
20
-24.000000
30
0.000000
11
90.000000
21
-24.000000
31
0.000000
0
ARC
8
FP-DOORS
10
120.000000
20
-24.000000
30
0.000000
40
30.000000
50
180.000000
51
-90.000000
0
TEXT
8
FP-NOTES
10
128.250000
20
-39.000000
30
0.000000
40
4.000000
1
D 3080 LH hinge:v1 swing:right
50
90.000000
0
LINE
8
FP-WALLS
10
243.000000
20
-180.000000
30
0.000000
11
243.000000
21
-252.000000
31
0.000000
0
LINE
8
FP-WALLS
10
237.000000
20
-180.000000
30
0.000000
11
237.000000
21
-252.000000
31
0.000000
0
LINE
8
FP-RAILS
10
240.000000
20
-253.000000
30
0.000000
11
198.000000
21
-253.000000
31
0.000000
0
LINE
8
FP-RAILS
10
240.000000
20
-251.000000
30
0.000000
11
198.000000
21
-251.000000
31
0.000000
0
LINE
8
FP-RAILS
10
162.000000
20
-253.000000
30
0.000000
11
120.000000
21
-253.000000
31
0.000000
0
LINE
8
FP-RAILS
10
162.000000
20
-251.000000
30
0.000000
11
120.000000
21
-251.000000
31
0.000000
0
LINE
8
FP-DOORS
10
198.000000
20
-253.000000
30
0.000000
11
162.000000
21
-253.000000
31
0.000000
0
LINE
8
FP-DOORS
10
198.000000
20
-251.000000
30
0.000000
11
162.000000
21
-251.000000
31
0.000000
0
LINE
8
FP-DOORS
10
198.000000
20
-252.000000
30
0.000000
11
198.000000
21
-288.000000
31
0.000000
0
ARC
8
FP-DOORS
10
198.000000
20
-252.000000
30
0.000000
40
36.000000
50
180.000000
51
-90.000000
0
TEXT
8
FP-NOTES
10
180.000000
20
-259.000000
30
0.000000
40
4.000000
1
G 3642
50
360.000000
0
LINE
8
FP-X-CONCEPT
10
300.000000
20
-18.250000
30
0.000000
11
360.000000
21
-18.250000
31
0.000000
0
LINE
8
FP-X-CONCEPT
10
300.000000
20
-21.750000
30
0.000000
11
360.000000
21
-21.750000
31
0.000000
0
LINE
8
FP-X-CONCEPT
10
361.750000
20
-20.000000
30
0.000000
11
361.750000
21
-80.000000
31
0.000000
0
LINE
8
FP-X-CONCEPT
10
358.250000
20
-20.000000
30
0.000000
11
358.250000
21
-80.000000
31
0.000000
0
LINE
8
FP-X-CONCEPT
10
360.000000
20
-81.750000
30
0.000000
11
300.000000
21
-81.750000
31
0.000000
0
LINE
8
FP-X-CONCEPT
10
360.000000
20
-78.250000
30
0.000000
11
300.000000
21
-78.250000
31
0.000000
0
LINE
8
FP-X-CONCEPT
10
298.250000
20
-80.000000
30
0.000000
11
298.250000
21
-20.000000
31
0.000000
0
LINE
8
FP-X-CONCEPT
10
301.750000
20
-80.000000
30
0.000000
11
301.750000
21
-20.000000
31
0.000000
0
TEXT
8
FP-ROOM-LABELS
10
60.000000
20
-80.000000
30
0.000000
40
8.000000
1
Study
50
0.000000
0
TEXT
8
FP-ROOM-LABELS
10
180.000000
20
-90.000000
30
0.000000
40
8.000000
1
Great Room
50
0.000000
0
LINE
8
FP-X-OPEN-EDGE
10
120.000000
20
-252.000000
30
0.000000
11
120.000000
21
-180.000000
31
0.000000
0
TEXT
8
FP-ROOM-LABELS
10
180.000000
20
-216.000000
30
0.000000
40
8.000000
1
Screen Porch
50
0.000000
0
TEXT
8
FP-ROOM-LABELS
10
330.000000
20
-50.000000
30
0.000000
40
8.000000
1
Future Studio?
50
0.000000
0
TEXT
8
FP-NOTES
10
8.000000
20
-230.000000
30
0.000000
40
4.000000
1
Grade slopes away S -- verify porch footing depth
50
-0.000000
0
ENDSEC
0
EOF
