0
SECTION
2
HEADER
9
$ACADVER
1
AC1009
0
ENDSEC
0
SECTION
2
TABLES
0
TABLE
2
LTYPE
70
2
0
LTYPE
2
CONTINUOUS
70
0
3
Solid line
72
65
73
0
40
0.000000
0
LTYPE
2
DASHED
70
0
3
Dashed __ __ __
72
65
73
2
40
12.000000
49
9.000000
49
-3.000000
0
ENDTAB
0
TABLE
2
LAYER
70
11
0
LAYER
2
FP-WALLS
70
0
62
7
6
CONTINUOUS
0
LAYER
2
FP-RAILS
70
0
62
4
6
CONTINUOUS
0
LAYER
2
FP-DOORS
70
0
62
1
6
CONTINUOUS
0
LAYER
2
FP-WINDOWS
70
0
62
5
6
CONTINUOUS
0
LAYER
2
FP-X-FENCE
70
0
62
8
6
CONTINUOUS
0
LAYER
2
FP-X-HEDGE
70
0
62
3
6
CONTINUOUS
0
LAYER
2
FP-X-RETAINING
70
0
62
8
6
CONTINUOUS
0
LAYER
2
FP-X-CONCEPT
70
0
62
9
6
DASHED
0
LAYER
2
FP-X-OPEN-EDGE
70
0
62
2
6
DASHED
0
LAYER
2
FP-ROOM-LABELS
70
0
62
7
6
CONTINUOUS
0
LAYER
2
FP-NOTES
70
0
62
6
6
CONTINUOUS
0
ENDTAB
0
TABLE
2
STYLE
70
1
0
STYLE
2
STANDARD
70
0
40
0.000000
41
1.000000
50
0.000000
71
0
42
2.500000
3
txt
4

0
ENDTAB
0
ENDSEC
0
SECTION
2
ENTITIES
0
LINE
8
FP-WALLS
10
0.000000
20
3.000000
30
0.000000
11
105.000000
21
3.000000
31
0.000000
0
LINE
8
FP-WALLS
10
0.000000
20
-3.000000
30
0.000000
11
105.000000
21
-3.000000
31
0.000000
0
LINE
8
FP-WALLS
10
135.000000
20
3.000000
30
0.000000
11
240.000000
21
3.000000
31
0.000000
0
LINE
8
FP-WALLS
10
135.000000
20
-3.000000
30
0.000000
11
240.000000
21
-3.000000
31
0.000000
0
LINE
8
FP-WINDOWS
10
105.000000
20
3.000000
30
0.000000
11
135.000000
21
3.000000
31
0.000000
0
LINE
8
FP-WINDOWS
10
105.000000
20
-3.000000
30
0.000000
11
135.000000
21
-3.000000
31
0.000000
0
TEXT
8
FP-NOTES
10
120.000000
20
9.000000
30
0.000000
40
4.000000
1
W 3050 sill:30 head:80
50
0.000000
0
LINE
8
FP-WALLS
10
243.000000
20
0.000000
30
0.000000
11
243.000000
21
-90.000000
31
0.000000
0
LINE
8
FP-WALLS
10
237.000000
20
-0.000000
30
0.000000
11
237.000000
21
-90.000000
31
0.000000
0
LINE
8
FP-WALLS
10
243.000000
20
-90.000000
30
0.000000
11
243.000000
21
-180.000000
31
0.000000
0
LINE
8
FP-WALLS
10
237.000000
20
-90.000000
30
0.000000
11
237.000000
21
-180.000000
31
0.000000
0
LINE
8
FP-WALLS
10
240.000000
20
-183.000000
30
0.000000
11
200.000000
21
-183.000000
31
0.000000
0
LINE
8
FP-WALLS
10
240.000000
20
-177.000000
30
0.000000
11
200.000000
21
-177.000000
31
0.000000
0
LINE
8
FP-WALLS
10
170.000000
20
-183.000000
30
0.000000
11
0.000000
21
-183.000000
31
0.000000
0
LINE
8
FP-WALLS
10
170.000000
20
-177.000000
30
0.000000
11
0.000000
21
-177.000000
31
0.000000
0
LINE
8
FP-WINDOWS
10
200.000000
20
-183.000000
30
0.000000
11
170.000000
21
-183.000000
31
0.000000
0
LINE
8
FP-WINDOWS
10
200.000000
20
-177.000000
30
0.000000
11
170.000000
21
-177.000000
31
0.000000
0
TEXT
8
FP-NOTES
10
185.000000
20
-189.000000
30
0.000000
40
4.000000
1
W 3050 sill:30 head:80
50
360.000000
0
LINE
8
FP-WALLS
10
-3.000000
20
-180.000000
30
0.000000
11
-3.000000
21
-90.000000
31
0.000000
0
LINE
8
FP-WALLS
10
3.000000
20
-180.000000
30
0.000000
11
3.000000
21
-90.000000
31
0.000000
0
LINE
8
FP-WALLS
10
-3.000000
20
-90.000000
30
0.000000
11
-3.000000
21
0.000000
31
0.000000
0
LINE
8
FP-WALLS
10
3.000000
20
-90.000000
30
0.000000
11
3.000000
21
0.000000
31
0.000000
0
LINE
8
FP-WALLS
10
0.000000
20
-87.750000
30
0.000000
11
105.000000
21
-87.750000
31
0.000000
0
LINE
8
FP-WALLS
10
0.000000
20
-92.250000
30
0.000000
11
105.000000
21
-92.250000
31
0.000000
0
LINE
8
FP-WALLS
10
135.000000
20
-87.750000
30
0.000000
11
240.000000
21
-87.750000
31
0.000000
0
LINE
8
FP-WALLS
10
135.000000
20
-92.250000
30
0.000000
11
240.000000
21
-92.250000
31
0.000000
0
LINE
8
FP-DOORS
10
105.000000
20
-87.750000
30
0.000000
11
135.000000
21
-87.750000
31
0.000000
0
LINE
8
FP-DOORS
10
105.000000
20
-92.250000
30
0.000000
11
135.000000
21
-92.250000
31
0.000000
0
LINE
8
FP-DOORS
10
105.000000
20
-90.000000
30
0.000000
11
105.000000
21
-60.000000
31
0.000000
0
ARC
8
FP-DOORS
10
105.000000
20
-90.000000
30
0.000000
40
30.000000
50
0.000000
51
90.000000
0
TEXT
8
FP-NOTES
10
120.000000
20
-81.750000
30
0.000000
40
4.000000
1
D 3080 hinged hinge:v1 swing:left
50
0.000000
0
TEXT
8
FP-ROOM-LABELS
10
120.000000
20
-45.000000
30
0.000000
40
8.000000
1
Bedroom 1
50
0.000000
0
TEXT
8
FP-ROOM-LABELS
10
120.000000
20
-135.000000
30
0.000000
40
8.000000
1
Bedroom 2
50
0.000000
0
ENDSEC
0
EOF
